<svg width="21" height="20" viewBox="0 0 21 20" fill="none" xmlns="http://www.w3.org/2000/svg">
<path d="M0.00726318 10.3497V9.65031C0.191503 4.28944 4.59551 0 10.0013 0C15.5241 0 20.0013 4.4772 20.0013 10C20.0013 15.5228 15.5241 20 10.0013 20C4.59551 20 0.191503 15.7106 0.00726318 10.3497Z" fill="#C52929"/>
<path fill-rule="evenodd" clip-rule="evenodd" d="M5.59035 8.68851V5.28701H3.98135V14.1007H5.58845L5.59035 10.9948C5.58845 10.4736 5.63745 10.0799 5.73585 9.81322C5.83235 9.54702 5.98525 9.34772 6.19745 9.21442C6.40525 9.08232 6.64495 9.01521 6.91115 9.01521C7.14415 9.01521 7.33705 9.06701 7.49195 9.17171C7.64645 9.27361 7.75395 9.41212 7.81505 9.58812C7.87625 9.76302 7.90525 10.1748 7.90525 10.825V14.1007H9.51475V10.4634C9.51475 9.90702 9.48725 9.49642 9.43195 9.23281C9.37665 8.96772 9.27435 8.72742 9.12255 8.50771C8.97195 8.29051 8.74845 8.11131 8.44965 7.97171C8.15195 7.83091 7.81985 7.76031 7.44885 7.76031C6.72885 7.76031 6.10805 8.07131 5.59035 8.68851ZM11.9247 8.68851V5.28701H10.3173V14.1007H11.9247V10.9948C11.9247 10.4736 11.9737 10.0799 12.0702 9.81322C12.1683 9.54702 12.3216 9.34772 12.5314 9.21442C12.7396 9.08232 12.9788 9.01521 13.2451 9.01521C13.4781 9.01521 13.6726 9.06701 13.8259 9.17171C13.9812 9.27361 14.0883 9.41212 14.1494 9.58812C14.211 9.76302 14.2412 10.1748 14.2412 10.825V14.1007H15.8486V10.4634C15.8486 9.90702 15.8212 9.49642 15.7659 9.23281C15.711 8.96772 15.6083 8.72742 15.4565 8.50771C15.3063 8.29051 15.0828 8.11131 14.7855 7.97171C14.4867 7.83091 14.1526 7.76031 13.7832 7.76031C13.0632 7.76031 12.4428 8.07131 11.9247 8.68851Z" fill="white"/>
</svg>
