<svg version="1.2" xmlns="http://www.w3.org/2000/svg" viewBox="0 0 188 227" width="188" height="227">
	<title>daily_ui_day_25_v2-2-sketch</title>
	<defs>
		<clipPath clipPathUnits="userSpaceOnUse" id="cp1">
			<path d="m-307-158h800v600h-800z"/>
		</clipPath>
		<clipPath clipPathUnits="userSpaceOnUse" id="cp2">
			<path d="m110.24 64.98c0-1.04 0.85-1.89 1.89-1.89h34c1.05 0 1.89 0.85 1.89 1.89v48.62c0 1.05-0.84 1.89-1.89 1.89h-34c-1.04 0-1.89-0.84-1.89-1.89z"/>
		</clipPath>
		<clipPath clipPathUnits="userSpaceOnUse" id="cp3">
			<path d="m173.69 192.33c1.67 0 3.17 0 5.9 0 2.74 0 5.21-1.5 5.21-3.45 0-2.98-3.68-4.58-8.55-4.58-4.86 0-9.03 1.43-9.03 4.4 0 2.34 0.77 2.86 3.46 3.4 0.74 0.15 1.96 0.23 3.01 0.23z"/>
		</clipPath>
		<clipPath clipPathUnits="userSpaceOnUse" id="cp4">
			<path d="m173.69 192.33c1.67 0 3.17 0 5.9 0 2.74 0 5.21-1.5 5.21-3.45 0-2.98-3.68-4.58-8.55-4.58-4.86 0-9.03 1.43-9.03 4.4 0 2.34 0.77 2.86 3.46 3.4 0.74 0.15 1.96 0.23 3.01 0.23z"/>
		</clipPath>
	</defs>
	<style>
		tspan { white-space:pre } 
		.s0 { opacity: .3;fill: #d8eef5 } 
		.s1 { fill: #ffffff;stroke: #43769a;stroke-linecap: round;stroke-linejoin: round } 
		.s2 { fill: none;stroke: #43769a;stroke-linecap: round;stroke-linejoin: round } 
		.s3 { fill: none;stroke: #43769a;stroke-linejoin: round } 
		.s4 { fill: #f5f3f3;stroke: #43769a;stroke-linejoin: round } 
		.s5 { fill: #4d5775 } 
		.s6 { fill: #ffffff;stroke: #43769a;stroke-linejoin: round } 
		.s7 { fill: none;stroke: #43769a;stroke-linecap: square } 
		.s8 { fill: #43769a } 
		.s9 { fill: #5f4ab6 } 
		.s10 { fill: #d2e4f1;stroke: #43769a;stroke-linecap: round;stroke-linejoin: round } 
		.s11 { opacity: .5;fill: none;stroke: #43769a;stroke-dasharray: 3 } 
		.s12 { fill: #e7f1ff;stroke: #43769a;paint-order:stroke fill markers;stroke-linejoin: round;stroke-width: 2 } 
		.s13 { fill: #d0e6f2 } 
		.s14 { fill: #ffffff;stroke: #5f4ab6;stroke-linejoin: round } 
		.s15 { fill: #e7f7ff } 
	</style>
	<g id="Icon_presentation" clip-path="url(#cp1)">
		<g id="Construction_icon">
			<path id="BG_oval" class="s0" d="m93.5 221c48.3 0 87.4-39.1 87.4-87.3 0-48.3-39.1-87.4-87.4-87.4-48.3 0-87.5 39.1-87.5 87.4 0 48.2 39.2 87.3 87.5 87.3z"/>
			<g id="Crane">
				<g id="Base">
					<path id="Base" class="s1" d="m62.1 80.7h-8.7c0 0-1.4-66.8 1.4-76.4h4.9c0 0 4 17.2 2.4 76.4z"/>
					<path id="Path 2" class="s2" d="m60.9 80.7l-7.6-7.5 8.4-7.2-8.6-7.1 8.6-7.9-8.7-7.9 8.7-8.8-7.5-7.5 6.5-6.5-5.6-5.6 5.1-5.1-4.5-4.5"/>
					<path id="Path 2" class="s2" d="m53.9 80.7l7.5-7.5-7-7.1 7.2-7.2-7.9-7.9 8-7.9-8.7-8.8 7.5-7.5-6.5-6.5 5.6-5.6-5.1-5.1 4.5-4.5"/>
				</g>
				<g id="Front">
					<path id="Path 3" class="s2" d="m20.7 29.6h110.9l-5.3-8.7-52.3 0.2-3.7 7.6"/>
					<path id="Path 4" class="s3" d="m70.7 29.3l10.5-7.4 7.6 6.8 7-6.5 8.2 6.1 7.5-5.9 7.1 5.8 7.8-6"/>
					<path id="Path 4" class="s3" d="m74.2 21.9l7 6.9 7.6-6.8 7 6.4 8.2-6.1 7.5 5.9 7.1-5.8 11.7 7.1"/>
				</g>
				<path id="Top_hodler" class="s3" d="m108.4 20.7l-48.4-17h-5.6l-25.7 18.1"/>
				<g id="Cabin">
					<path id="Path" class="s4" d="m53.3 52h13.7c0 0 2.8 0.3 3.6-3.5v-5c0 0-0.4-6.3-6.9-6.3-6.5 0-10.6 0-10.6 0z"/>
					<path id="Path 7" class="s5" d="m53.9 45.7h15.9v2.9c-0.4 2.8-2.5 2.8-2.5 2.8h-13.4z"/>
					<path id="Path 8" class="s3" d="m70.2 45.5h-16.5"/>
					<path id="Path 5" class="s3" d="m62.6 37.3v7.9"/>
				</g>
				<g id="Back">
					<path id="Rectangle" class="s3" d="m46.6 20.5h-26.6v9.1h26.6z"/>
					<path id="Path 6" class="s3" d="m45.6 21.4l-8.3 7.6-8-7-8.8 6.9"/>
					<path id="Path 6" class="s3" d="m44.7 29l-7.4-7-8 7-8.8-6.9"/>
				</g>
			</g>
			<g id="Computer">
				<g id="Keyboard">
					<path id="Rectangle 9" class="s6" d="m31.2 186.4c0-0.9 0.8-1.7 1.7-1.7h3.6c0.9 0 1.7 0.8 1.7 1.7v0.9c0 0.9-0.8 1.7-1.7 1.7h-3.6c-0.9 0-1.7-0.8-1.7-1.7z"/>
					<path id="Rectangle 9" class="s6" d="m41.4 186.4c0-0.9 0.8-1.7 1.7-1.7h3.5c1 0 1.8 0.8 1.8 1.7v0.9c0 0.9-0.8 1.7-1.8 1.7h-3.5c-0.9 0-1.7-0.8-1.7-1.7z"/>
					<path id="Rectangle 9" class="s6" d="m51.2 186.4c0-0.9 0.8-1.7 1.7-1.7h3.6c0.9 0 1.7 0.8 1.7 1.7v0.9c0 0.9-0.8 1.7-1.7 1.7h-3.6c-0.9 0-1.7-0.8-1.7-1.7z"/>
					<path id="Rectangle 9" class="s6" d="m101 186.4c0-0.9 0.8-1.7 1.7-1.7h3.6c0.9 0 1.7 0.8 1.7 1.7v0.9c0 0.9-0.8 1.7-1.7 1.7h-3.6c-0.9 0-1.7-0.8-1.7-1.7z"/>
					<path id="Rectangle 9" class="s6" d="m110.8 186.4c0-0.9 0.8-1.7 1.8-1.7h3.5c0.9 0 1.7 0.8 1.7 1.7v0.9c0 0.9-0.8 1.7-1.7 1.7h-3.5c-1 0-1.8-0.8-1.8-1.7z"/>
					<path id="Rectangle 9" class="s6" d="m128.7 186.4c0-0.9 0.8-1.7 1.8-1.7h3.5c0.9 0 1.7 0.8 1.7 1.7v0.9c0 0.9-0.8 1.7-1.7 1.7h-3.5c-1 0-1.8-0.8-1.8-1.7z"/>
					<path id="Rectangle 9" class="s6" d="m138.5 186.4c0-0.9 0.8-1.7 1.8-1.7h3.5c1 0 1.7 0.8 1.7 1.7v0.9c0 0.9-0.7 1.7-1.7 1.7h-3.5c-1 0-1.8-0.8-1.8-1.7z"/>
					<path id="Rectangle 9" class="s6" d="m148.3 186.4c0-0.9 0.8-1.7 1.8-1.7h3.5c1 0 1.8 0.8 1.8 1.7v0.9c0 0.9-0.8 1.7-1.8 1.7h-3.5c-1 0-1.8-0.8-1.8-1.7z"/>
					<path id="Rectangle 9" class="s6" d="m61.7 186.4c0-0.9 0.8-1.7 1.8-1.7h32.6c1 0 1.7 0.8 1.7 1.7v0.9c0 0.9-0.7 1.7-1.7 1.7h-32.6c-1 0-1.8-0.8-1.8-1.7z"/>
					<path id="Rectangle 8" class="s6" d="m28 188.6c0.2-0.9 1.1-1.6 2-1.6h126.6c0.9 0 1.7 0.6 2 1.5l0.8 2.5c0.4 1.4-0.6 2.7-2.1 2.7h-127.9c-1.4 0-2.4-1.2-2.1-2.6z"/>
					<path id="Line" class="s7" d="m28.2 190.3h131.3"/>
				</g>
				<g id="Monitor">
					<path id="Monitor_BG" class="s6" d="m31.2 81.8c0-2.6 2.1-4.7 4.7-4.7h114.4c2.6 0 4.7 2.1 4.7 4.7v77.8c0 2.6-2.1 4.7-4.7 4.7h-114.4c-2.6 0-4.7-2.1-4.7-4.7z"/>
					<path id="Oval 2" class="s8" d="m93.5 158.1c1.1 0 2.1-0.9 2.1-2.1 0-1.1-1-2.1-2.1-2.1-1.2 0-2.1 1-2.1 2.1 0 1.2 0.9 2.1 2.1 2.1z"/>
					<path id="Camera" class="s9" d="m92.5 81.3c0.4 0 0.7-0.3 0.7-0.7 0-0.4-0.3-0.7-0.7-0.7-0.3 0-0.7 0.3-0.7 0.7 0 0.4 0.4 0.7 0.7 0.7z"/>
					<path id="Monitor_BG" class="s10" d="m36 82.7h112.3v67.3h-112.3z"/>
					<g id="Monitor_base">
						<path id="Rectangle 7" class="s6" d="m79.8 163.8h26.6l2 15.7-30.4 1.1z"/>
						<path id="Rectangle 6" class="s6" d="m72.5 179.4c0-0.7 0.5-1.3 1.2-1.3h37.7c0.7 0 1.2 0.6 1.2 1.3 0 0.6-0.5 1.2-1.2 1.2h-37.7c-0.7 0-1.2-0.6-1.2-1.2z"/>
					</g>
					<g id="Monitor_left_group">
						<g id="Buttons">
							<path id="Oval" class="s8" d="m41.4 87.7c0.7 0 1.3-0.5 1.3-1.2 0-0.7-0.6-1.3-1.3-1.3-0.7 0-1.2 0.6-1.2 1.3 0 0.7 0.5 1.2 1.2 1.2z"/>
							<path id="Oval Copy" class="s8" d="m44.8 87.7c0.7 0 1.3-0.5 1.3-1.2 0-0.7-0.6-1.3-1.3-1.3-0.7 0-1.3 0.6-1.3 1.3 0 0.7 0.6 1.2 1.3 1.2z"/>
							<path id="Oval Copy 2" class="s8" d="m48.2 87.7c0.7 0 1.2-0.5 1.2-1.2 0-0.7-0.5-1.3-1.2-1.3-0.7 0-1.3 0.6-1.3 1.3 0 0.7 0.6 1.2 1.3 1.2z"/>
						</g>
						<path id="Rectangle" class="s8" d="m36.8 88.9h110.9v1.1h-110.9z"/>
						<path id="Rectangle 2" class="s8" d="m40.7 116.9c0-0.5 0.4-0.8 0.9-0.8h12.3c0.5 0 0.9 0.3 0.9 0.8 0 0.5-0.4 0.9-0.9 0.9h-12.3c-0.5 0-0.9-0.4-0.9-0.9z"/>
						<path id="Rectangle 2 Copy 6" class="s8" d="m41 133.5c0-0.5 0.4-0.9 0.9-0.9h19.1c0.4 0 0.8 0.4 0.8 0.9 0 0.4-0.4 0.8-0.8 0.8h-19.1c-0.5 0-0.9-0.4-0.9-0.8z"/>
						<path id="Rectangle 2 Copy 4" class="s8" d="m57.6 116.9c0-0.5 0.4-0.8 0.8-0.8h6.8c0.4 0 0.8 0.3 0.8 0.8 0 0.5-0.4 0.9-0.8 0.9h-6.8c-0.4 0-0.8-0.4-0.8-0.9z"/>
						<path id="Rectangle 2 Copy 4" class="s8" d="m41 99.5c0-0.5 0.4-0.8 0.9-0.8h19.1c0.4 0 0.8 0.3 0.8 0.8 0 0.5-0.4 0.9-0.8 0.9h-19.1c-0.5 0-0.9-0.4-0.9-0.9z"/>
						<path id="Rectangle 2 Copy 4" class="s8" d="m48 103.7c0-0.4 0.4-0.8 0.9-0.8h29.7c0.5 0 0.9 0.4 0.9 0.8 0 0.5-0.4 0.9-0.9 0.9h-29.7c-0.5 0-0.9-0.4-0.9-0.9z"/>
						<path id="Rectangle 2 Copy 2" class="s8" d="m41 121.4c0-0.5 0.4-0.8 0.9-0.8h10.3c0.5 0 0.9 0.3 0.9 0.8 0 0.5-0.4 0.8-0.9 0.8h-10.3c-0.5 0-0.9-0.3-0.9-0.8z"/>
						<path id="Rectangle 2 Copy 2" class="s8" d="m41.3 94.9c0-0.4 0.3-0.7 0.7-0.7h12.6c0.4 0 0.7 0.3 0.7 0.7 0 0.4-0.3 0.7-0.7 0.7h-12.6c-0.4 0-0.7-0.3-0.7-0.7z"/>
						<path id="Rectangle 2 Copy 2" class="s8" d="m48.3 137.5c0-0.3 0.3-0.7 0.7-0.7h30.1c0.4 0 0.7 0.4 0.7 0.7 0 0.4-0.3 0.7-0.7 0.7h-30.1c-0.4 0-0.7-0.3-0.7-0.7z"/>
						<path id="Rectangle 2 Copy 2" class="s8" d="m83.7 137.5c0-0.3 0.3-0.7 0.7-0.7h3.1c0.4 0 0.7 0.4 0.7 0.7 0 0.4-0.3 0.7-0.7 0.7h-3.1c-0.4 0-0.7-0.3-0.7-0.7z"/>
						<path id="Rectangle 2 Copy 5" class="s8" d="m41 129.3c0-0.5 0.4-0.9 0.9-0.9h12.3c0.5 0 0.9 0.4 0.9 0.9 0 0.4-0.4 0.8-0.9 0.8h-12.3c-0.5 0-0.9-0.4-0.9-0.8z"/>
						<path id="Rectangle 2 Copy 3" class="s8" d="m48 112.7c0-0.5 0.4-0.8 0.9-0.8h38.4c0.5 0 0.9 0.3 0.9 0.8 0 0.5-0.4 0.8-0.9 0.8h-38.4c-0.5 0-0.9-0.3-0.9-0.8z"/>
						<path id="Rectangle 2 Copy" class="s8" d="m59.5 108.2c0-0.5 0.4-0.8 0.9-0.8h32c0.5 0 0.8 0.3 0.8 0.8 0 0.5-0.3 0.9-0.8 0.9h-32c-0.5 0-0.9-0.4-0.9-0.9z"/>
						<path id="Rectangle 2 Copy" class="s8" d="m48 108.2c0-0.5 0.4-0.8 0.9-0.8h6.7c0.5 0 0.9 0.3 0.9 0.8 0 0.5-0.4 0.9-0.9 0.9h-6.7c-0.5 0-0.9-0.4-0.9-0.9z"/>
						<path id="Rectangle 2 Copy" class="s8" d="m64.9 133.5c0-0.5 0.4-0.9 0.8-0.9h17.2c0.4 0 0.8 0.4 0.8 0.9 0 0.4-0.4 0.8-0.8 0.8h-17.2c-0.4 0-0.8-0.4-0.8-0.8z"/>
					</g>
					<path id="Rectangle 3" class="s11" d="m108.8 99.4c0-1.5 1.3-2.8 2.8-2.8h30.8c1.6 0 2.8 1.3 2.8 2.8v38.4c0 1.6-1.2 2.8-2.8 2.8h-30.8c-1.5 0-2.8-1.2-2.8-2.8z"/>
				</g>
			</g>
			<g id="Floating_window">
				<path id="Floating_window" class="s12" d="m110.2 65c0-1.1 0.9-1.9 1.9-1.9h34c1.1 0 1.9 0.8 1.9 1.9v48.6c0 1-0.8 1.9-1.9 1.9h-34c-1 0-1.9-0.9-1.9-1.9z"/>
				<g id="Mask by Floating_window" clip-path="url(#cp2)">
					<path id="Rectangle 4" class="s13" d="m108.6 62.2h41.5v8.7h-41.5z"/>
					<g id="Top_bar">
						<path id="Oval 3" class="s8" d="m115.6 68.4c0.6 0 1-0.4 1-0.9 0-0.5-0.4-1-1-1-0.5 0-0.9 0.5-0.9 1 0 0.5 0.4 0.9 0.9 0.9z"/>
						<path id="Oval 3" class="s8" d="m118.8 68.4c0.5 0 1-0.4 1-0.9 0-0.5-0.5-1-1-1-0.5 0-0.9 0.5-0.9 1 0 0.5 0.4 0.9 0.9 0.9z"/>
						<path id="Oval 3" class="s8" d="m122 68.4c0.5 0 0.9-0.4 0.9-0.9 0-0.5-0.4-1-0.9-1-0.5 0-1 0.5-1 1 0 0.5 0.5 0.9 1 0.9z"/>
					</g>
					<g id="Wrtigin_Overlay">
						<path id="Rectangle 5" class="s8" d="m115.6 74.9c0-0.3 0.3-0.5 0.5-0.5h13c0.3 0 0.5 0.2 0.5 0.5 0 0.2-0.2 0.4-0.5 0.4h-13c-0.2 0-0.5-0.2-0.5-0.4z"/>
						<path id="Rectangle 5" class="s8" d="m115.3 79.3c0-0.3 0.2-0.5 0.5-0.5h22.2c0.3 0 0.5 0.2 0.5 0.5 0 0.2-0.2 0.4-0.5 0.4h-22.2c-0.3 0-0.5-0.2-0.5-0.4z"/>
						<path id="Rectangle 5" class="s8" d="m115.3 89.3c0-0.3 0.2-0.5 0.5-0.5h15.2c0.3 0 0.5 0.2 0.5 0.5 0 0.3-0.2 0.5-0.5 0.5h-15.2c-0.3 0-0.5-0.2-0.5-0.5z"/>
						<path id="Rectangle 5" class="s8" d="m132.5 89.3c0-0.3 0.2-0.5 0.4-0.5h5.4c0.3 0 0.5 0.2 0.5 0.5 0 0.3-0.2 0.5-0.5 0.5h-5.4c-0.2 0-0.4-0.2-0.4-0.5z"/>
						<path id="Rectangle 5" class="s8" d="m115.3 104.4c0-0.3 0.2-0.5 0.5-0.5h17.1c0.3 0 0.5 0.2 0.5 0.5 0 0.2-0.2 0.4-0.5 0.4h-17.1c-0.3 0-0.5-0.2-0.5-0.4z"/>
						<path id="Rectangle 5" class="s8" d="m115.3 84.6c0-0.3 0.2-0.5 0.5-0.5h17.1c0.3 0 0.5 0.2 0.5 0.5 0 0.2-0.2 0.5-0.5 0.5h-17.1c-0.3 0-0.5-0.3-0.5-0.5z"/>
						<path id="Rectangle 5" class="s8" d="m115.6 100c0-0.3 0.3-0.5 0.5-0.5h19.7c0.3 0 0.5 0.2 0.5 0.5 0 0.2-0.2 0.4-0.5 0.4h-19.7c-0.2 0-0.5-0.2-0.5-0.4z"/>
						<path id="Rectangle 5" class="s8" d="m115.6 100c0-0.3 0.3-0.5 0.5-0.5h19.7c0.3 0 0.5 0.2 0.5 0.5 0 0.2-0.2 0.4-0.5 0.4h-19.7c-0.2 0-0.5-0.2-0.5-0.4z"/>
						<path id="Rectangle 5" class="s8" d="m122 108.7c0-0.2 0.2-0.4 0.5-0.4h14.3c0.2 0 0.4 0.2 0.4 0.4 0 0.3-0.2 0.5-0.4 0.5h-14.3c-0.3 0-0.5-0.2-0.5-0.5z"/>
						<path id="Rectangle 5" class="s8" d="m115.3 108.7c0-0.2 0.2-0.4 0.5-0.4h5.1c0.2 0 0.5 0.2 0.5 0.4 0 0.3-0.3 0.5-0.5 0.5h-5.1c-0.3 0-0.5-0.2-0.5-0.5z"/>
					</g>
				</g>
				<path id="Path 9" class="s3" d="m128.9 28.9v34.2"/>
			</g>
			<g id="Mouse">
				<g id="Mouse">
					<path id="Oval 4" class="s14" d="m173.7 192.3c1.7 0 3.2 0 5.9 0 2.7 0 5.2-1.5 5.2-3.4 0-3-3.7-4.6-8.5-4.6-4.9 0-9.1 1.4-9.1 4.4 0 2.3 0.8 2.9 3.5 3.4 0.7 0.2 1.9 0.2 3 0.2z"/>
					<g id="Mask by Oval 4" clip-path="url(#cp3)">
						<path id="Path 2" class="s15" d="m167.5 187.7c0 0 8.5 4.2 17.3 0 8.7-4.1-3.2 11.3-3.2 11.3 0 0-20.7 3.3-19.3-2.5 1.4-5.8 5.2-8.8 5.2-8.8z"/>
						<path id="Oval 4" class="s3" d="m173.7 192.3c1.7 0 3.2 0 5.9 0 2.7 0 5.2-1.5 5.2-3.4 0-3-3.7-4.6-8.5-4.6-4.9 0-9.1 1.4-9.1 4.4 0 2.3 0.8 2.9 3.5 3.4 0.7 0.2 1.9 0.2 3 0.2z"/>
						<g id="Mask by Oval 4" clip-path="url(#cp4)">
						</g>
					</g>
				</g>
			</g>
		</g>
	</g>
</svg>